<?xml version="1.0" standalone="no"?>
<!DOCTYPE svg PUBLIC "-//W3C//DTD SVG 20010904//EN"
 "http://www.w3.org/TR/2001/REC-SVG-20010904/DTD/svg10.dtd">
<svg version="1.0" xmlns="http://www.w3.org/2000/svg"
 width="936.000000pt" height="1280.000000pt" viewBox="0 0 936.000000 1280.000000"
 preserveAspectRatio="xMidYMid meet">
<metadata>
Created by potrace 1.15, written by Peter Selinger 2001-2017
</metadata>
<g transform="translate(0.000000,1280.000000) scale(0.100000,-0.100000)"
fill="#fff" stroke="none">
<path d="M3740 12785 c-350 -48 -724 -214 -1090 -484 l-105 -78 -162 -12 c-90
-6 -216 -21 -280 -32 -889 -153 -1467 -624 -1653 -1344 -53 -205 -65 -315 -65
-590 1 -303 22 -478 100 -830 59 -261 85 -696 85 -1401 0 -674 -26 -1183 -96
-1884 -24 -245 -40 -381 -104 -905 -270 -2204 -404 -3715 -361 -4084 46 -394
257 -594 821 -778 1115 -363 2690 -458 4380 -262 460 53 1039 150 1467 245
295 65 510 233 632 496 65 137 82 219 88 413 4 147 1 207 -27 445 -41 366 -92
732 -141 1029 -22 133 -39 244 -37 245 2 1 30 10 63 20 93 28 289 116 405 181
659 370 1163 980 1464 1773 40 106 51 154 86 365 104 643 144 1090 145 1627 0
622 -62 973 -231 1313 -192 385 -485 609 -934 714 -97 22 -135 25 -495 34
-214 5 -454 12 -531 15 l-142 6 -7 56 c-17 140 -68 428 -96 542 l-30 125 45
80 c107 186 148 326 149 505 0 109 -3 135 -26 205 -15 44 -43 109 -64 145 -74
127 -240 270 -420 362 -53 27 -63 37 -58 53 18 69 26 222 16 318 -25 230 -102
392 -250 530 -189 174 -462 260 -871 274 l-185 6 -101 96 c-269 257 -602 420
-951 466 -131 18 -305 18 -433 0z m295 -205 c124 -12 281 -48 400 -92 232 -85
501 -253 695 -435 l75 -70 100 14 c136 20 352 12 460 -16 282 -73 461 -263
537 -569 19 -74 22 -116 23 -283 l0 -195 70 -29 c173 -69 318 -188 383 -312
114 -216 91 -527 -61 -836 l-43 -88 33 -162 c179 -861 184 -1372 19 -1712
-136 -280 -369 -434 -756 -503 -70 -12 -153 -16 -320 -16 -213 0 -230 1 -325
27 -116 31 -243 90 -329 151 -79 56 -199 183 -258 271 -135 204 -235 504 -278
840 -19 152 -29 446 -20 615 5 91 9 174 9 185 1 12 -10 1 -27 -30 -47 -85 -87
-137 -163 -213 -238 -234 -580 -388 -1059 -476 -382 -70 -950 -91 -1275 -46
-654 91 -1079 401 -1249 911 -59 178 -71 263 -68 521 5 626 130 1036 424 1386
216 257 571 459 955 542 186 40 303 53 526 55 l217 3 87 82 c271 257 564 415
861 465 156 26 212 28 357 15z m3575 -3720 c520 -30 763 -109 1005 -329 303
-276 480 -675 551 -1241 21 -173 29 -634 15 -845 -39 -570 -123 -1047 -249
-1415 -257 -751 -772 -1378 -1412 -1718 -94 -51 -253 -122 -271 -122 -5 0 -9
33 -9 74 l0 74 88 41 c368 177 711 454 951 770 62 81 191 287 191 304 0 5 -30
-29 -67 -75 -207 -257 -495 -488 -795 -637 -117 -59 -363 -151 -401 -151 -9 0
-26 132 -61 473 -26 259 -50 483 -53 497 -4 23 1 27 79 53 256 88 557 287 728
482 175 200 313 564 376 989 22 147 29 476 15 632 -24 251 -72 467 -130 582
-143 283 -441 440 -868 458 -76 3 -181 1 -233 -4 -52 -6 -96 -9 -97 -8 -1 1 9
29 22 62 31 78 61 246 77 433 l12 150 30 13 c71 30 620 3 778 -38 330 -85 608
-404 723 -827 10 -37 20 -66 22 -63 8 8 -20 196 -43 288 -72 292 -223 500
-467 641 -162 94 -360 149 -604 168 -131 11 -382 0 -428 -17 -14 -6 -15 11
-13 147 l3 154 110 6 c190 9 245 9 425 -1z m-6595 -215 c228 -163 538 -283
854 -330 621 -93 1428 36 2215 355 83 33 152 60 155 60 3 0 4 -54 3 -121 -8
-268 45 -526 153 -740 61 -122 114 -197 203 -291 l75 -78 -1427 0 -1426 0 7
-42 c13 -70 9 -700 -5 -868 -69 -828 -198 -1777 -422 -3105 -112 -659 -300
-1698 -308 -1691 -2 3 6 76 17 163 116 898 181 2536 181 4543 0 404 -3 779 -7
833 l-6 97 -254 0 -253 0 0 711 0 710 78 -71 c42 -39 118 -99 167 -135z m6325
-1125 c271 -17 410 -68 540 -199 81 -82 125 -154 166 -274 70 -206 80 -498 28
-850 -79 -536 -289 -937 -615 -1175 -109 -79 -273 -156 -376 -175 -28 -6 -33
-3 -37 16 -3 12 -28 351 -56 752 -29 402 -71 993 -94 1315 -24 322 -41 588
-39 592 5 10 311 9 483 -2z m-874 -1002 c131 -2618 183 -3870 160 -3847 -11
11 -53 325 -246 1834 -200 1562 -317 2353 -369 2489 -7 16 -10 30 -9 30 2 1
32 8 68 15 82 16 195 60 285 110 39 22 72 38 74 35 2 -2 18 -301 37 -666z
m-706 471 c0 -15 11 -238 25 -495 74 -1392 106 -2029 103 -2053 -2 -14 -18 66
-35 179 -18 113 -82 511 -142 885 -60 374 -139 864 -175 1089 -36 225 -66 412
-66 415 0 3 65 6 145 6 l145 0 0 -26z m-2487 -113 c74 -36 137 -98 173 -171
26 -54 29 -70 29 -155 0 -88 -3 -101 -33 -162 -64 -130 -180 -201 -327 -202
-69 0 -90 4 -145 31 -222 104 -287 387 -129 566 44 51 87 80 157 108 71 29
200 22 275 -15z m-388 -885 c96 -46 155 -114 186 -212 24 -78 24 -131 -1 -213
-27 -88 -103 -171 -191 -211 -156 -70 -350 -10 -437 135 -44 74 -55 121 -50
210 14 246 270 397 493 291z m411 -1366 c53 -16 100 -57 129 -114 27 -53 17
-149 -20 -203 -89 -125 -279 -114 -353 20 -26 46 -31 119 -12 176 13 42 88
113 127 122 15 3 33 7 38 9 21 7 43 5 91 -10z"/>
<path d="M3782 12389 c-114 -11 -192 -28 -192 -42 0 -7 6 -33 13 -60 l12 -47
155 -4 c87 -2 192 -11 239 -21 303 -60 581 -209 816 -437 l101 -97 52 41 c28
22 52 44 52 49 0 22 -114 173 -193 256 -203 212 -466 334 -782 363 -122 11
-152 11 -273 -1z"/>
<path d="M2120 11823 c-25 -2 -82 -8 -127 -13 -340 -43 -646 -228 -852 -516
-73 -102 -185 -328 -229 -459 -83 -247 -142 -594 -142 -832 l0 -73 103 0 104
0 6 163 c22 526 163 914 431 1183 221 220 548 354 869 354 l97 0 0 94 0 93
-82 6 c-46 4 -94 6 -108 5 -14 -1 -45 -3 -70 -5z"/>
<path d="M5470 11757 l0 -73 83 -16 c144 -27 237 -85 317 -200 98 -140 142
-317 144 -587 l1 -173 90 -32 c258 -92 373 -255 344 -485 -4 -39 -20 -100 -34
-134 -14 -35 -25 -69 -25 -75 0 -16 73 -162 81 -162 3 0 24 39 47 88 157 338
148 588 -27 762 -68 68 -141 111 -243 142 l-78 23 0 120 c0 217 -34 381 -112
543 -103 217 -280 332 -507 332 l-81 0 0 -73z"/>
<path d="M4987 7816 c-26 -40 -47 -77 -47 -82 0 -5 30 -28 68 -51 419 -256
866 -313 1208 -153 77 35 196 110 208 129 4 6 -47 152 -60 169 -1 2 -23 -10
-47 -27 -166 -114 -359 -171 -576 -171 -218 1 -429 70 -636 210 l-71 48 -47
-72z"/>
<path d="M3059 6737 c-116 -43 -168 -157 -120 -262 40 -88 133 -137 220 -115
101 25 156 101 149 206 -3 52 -9 70 -35 101 -16 21 -44 46 -60 55 -41 24 -110
31 -154 15z"/>
<path d="M2681 5855 c-145 -46 -177 -238 -55 -332 29 -21 50 -28 100 -31 55
-4 70 -1 108 22 63 37 91 86 91 162 0 49 -5 68 -28 102 -46 71 -136 103 -216
77z"/>
</g>
</svg>
